# xmcd
#
# Track frame offsets:
#	150
#	21831
#	42910
#	59344
#	69274
#	91757
#	112758
#	130394
#	146649
#	167122
#	189897
#	208968
#
# Disc length: 3093 seconds
#
# Revision: 0
# Processed by: cddbd v1.5.2PL0 Copyright (c) Steve Scherf et al.
# Submitted via: dBpowerAMP V4.0
#
DISCID=a30c130c
DTITLE=The Bluezone - Thanks for Coming to The Sho
DYEAR=2008
DGENRE=Blues
TTITLE0=My Love is a Dangerous Thing
TTITLE1=Pourin' Rain
TTITLE2=Hold On
TTITLE3=Hold On (reprise)
TTITLE4=Fight or Run
TTITLE5=Drag On
TTITLE6=Highway Heaven
TTITLE7=Unspoken
TTITLE8=Get On The Run
TTITLE9=Blues and The Night
TTITLE10=Ridin' Down The Highway
TTITLE11=The Game
EXTD=
EXTT0=
EXTT1=
EXTT2=
EXTT3=
EXTT4=
EXTT5=
EXTT6=
EXTT7=
EXTT8=
EXTT9=
EXTT10=
EXTT11=
PLAYORDER=
